<?xml version="1.0" encoding="utf-8"?>
<!-- Generator: Adobe Illustrator 24.0.2, SVG Export Plug-In . SVG Version: 6.00 Build 0)  -->
<svg version="1.1" id="Icon" xmlns="http://www.w3.org/2000/svg" xmlns:xlink="http://www.w3.org/1999/xlink" x="0px" y="0px"
	 viewBox="0 0 26.9 25.5" style="enable-background:new 0 0 26.9 25.5;" xml:space="preserve">
<style type="text/css">
	.st0{fill:#EE0000;}
</style>
<path class="st0" d="M22.9,9c-0.4-4.7-4.5-8.3-9.2-7.9C11,1.3,8.6,2.7,7.2,5H6.6C2.9,5,0,8,0,11.6c0,3.7,3,6.6,6.6,6.6h1.7
	c0.4,0,0.8-0.3,0.8-0.8s-0.3-0.8-0.8-0.8H6.6c-2.8,0-5.1-2.3-5.1-5.1s2.2-5,5.1-5c0.3,0,0.6,0,0.9,0.1c0.3,0.1,0.6-0.1,0.8-0.4
	c1.9-3.4,6.2-4.6,9.6-2.7c2.2,1.3,3.6,3.6,3.6,6.2c0,0.4,0.3,0.8,0.8,0.8c1.7-0.1,3.2,1.2,3.3,3c0.1,1.7-1.2,3.2-3,3.3
	c-0.1,0-0.2,0-0.4,0c-0.4,0-0.8,0.3-0.8,0.8s0.3,0.8,0.8,0.8c2.6,0,4.7-2,4.7-4.6C26.9,11.3,25.2,9.3,22.9,9L22.9,9z"/>
<path class="st0" d="M19.6,19.9c0.8-1,1.2-2.2,1.2-3.5c0-3.1-2.5-5.6-5.5-5.6s-5.6,2.5-5.6,5.5s2.5,5.6,5.5,5.6c1.2,0,2.3-0.4,3.2-1
	l3.4,3.2c0.3,0.3,0.8,0.3,1,0l0,0c0.3-0.3,0.3-0.8,0-1.1L19.6,19.9z M11.3,16.4c0-2.2,1.8-4,4-4s4,1.8,4,4s-1.8,4-4,4
	S11.3,18.6,11.3,16.4z"/>
<g>
	<path class="st0" d="M15.7,18.2c0.4-0.1,0.6-0.2,0.6-0.5s-0.1-0.4-0.6-0.6L15,16.9c-1.1-0.3-1.7-0.7-1.7-1.7c0-0.9,0.7-1.5,1.7-1.6
		v-0.4c0-0.2,0.2-0.4,0.4-0.4c0.2,0,0.4,0.2,0.4,0.4v0.4c0.4,0.1,0.8,0.2,1.1,0.4c0.2,0.1,0.3,0.2,0.3,0.5S17,15,16.7,15
		c-0.1,0-0.2,0-0.3-0.1c-0.2-0.1-0.4-0.2-0.7-0.3S15,14.5,15,14.5c-0.4,0.1-0.5,0.2-0.5,0.5c0,0.2,0.1,0.4,0.5,0.6
		c0,0,0.4,0.1,0.7,0.2c1.2,0.3,1.7,0.8,1.7,1.7s-0.7,1.5-1.7,1.6v0.4c0,0.2-0.2,0.4-0.4,0.4c-0.2,0-0.4-0.2-0.4-0.4v-0.4
		c-0.6-0.1-1.1-0.3-1.6-0.6C13.1,18.4,13,18.2,13,18c0-0.3,0.2-0.5,0.5-0.5c0.1,0,0.2,0,0.3,0.1c0.3,0.2,0.6,0.4,1,0.4
		C15,18.2,15.3,18.3,15.7,18.2z"/>
</g>
</svg>
