<?xml version="1.0" encoding="utf-8"?>
<!-- Generator: Adobe Illustrator 24.0.2, SVG Export Plug-In . SVG Version: 6.00 Build 0)  -->
<svg version="1.1" id="b14429d9-aee4-4888-91ad-21801bef7b27"
	 xmlns="http://www.w3.org/2000/svg" xmlns:xlink="http://www.w3.org/1999/xlink" x="0px" y="0px" viewBox="0 0 27.5 25.5"
	 style="enable-background:new 0 0 27.5 25.5;" xml:space="preserve">
<style type="text/css">
	.st0{fill:#EE0000;}
</style>
<title>Icon-Red_Hat-Hybrid_cloud_infrastructure-Red-A-RGB</title>
<g>
	<path class="st0" d="M6.8,22.5h16c2.6,0,4.8-2.1,4.8-4.7c0-2.3-1.7-4.3-4-4.7c-0.4-4.8-4.6-8.4-9.4-8c-2.7,0.2-5.2,1.7-6.7,4
		C7.2,9,7,9,6.8,9C3,9,0,12.1,0.1,15.8C0.1,19.5,3.1,22.5,6.8,22.5L6.8,22.5z M6.8,10.5c0.3,0,0.6,0,0.9,0.1
		c0.3,0.1,0.6-0.1,0.8-0.4c2-3.5,6.4-4.7,9.9-2.8c2.3,1.3,3.7,3.7,3.7,6.3c0,0.4,0.3,0.8,0.8,0.8c1.8,0,3.2,1.5,3.2,3.2
		S24.5,21,22.8,21h-16c-2.9,0-5.2-2.4-5.2-5.3C1.6,12.8,3.9,10.5,6.8,10.5z"/>
	<path class="st0" d="M26.8,24h-26C0.3,24,0,24.3,0,24.8s0.3,0.8,0.8,0.8h26c0.4,0,0.8-0.3,0.8-0.8S27.2,24,26.8,24z"/>
</g>
</svg>
