<?xml version="1.0" encoding="utf-8"?>
<!-- Generator: Adobe Illustrator 24.0.2, SVG Export Plug-In . SVG Version: 6.00 Build 0)  -->
<svg version="1.1" id="Icons" xmlns="http://www.w3.org/2000/svg" xmlns:xlink="http://www.w3.org/1999/xlink" x="0px" y="0px"
	 viewBox="0 0 18.5 25.5" style="enable-background:new 0 0 18.5 25.5;" xml:space="preserve">
<style type="text/css">
	.st0{fill:#EE0000;}
</style>
<title>Icons-Red_Hat-Software_and_Technologies-Automation-A-Red-RGB</title>
<path class="st0" d="M6.8,0h-6C0.3,0,0,0.4,0,0.8c0,0,0,0,0,0v6c0,0.4,0.3,0.8,0.8,0.8h6c0.4,0,0.8-0.3,0.8-0.8v-6
	C7.5,0.4,7.2,0,6.8,0C6.8,0,6.8,0,6.8,0z M6,6H1.5V1.5H6V6z"/>
<path class="st0" d="M6.8,9h-6C0.3,9,0,9.3,0,9.8v6c0,0.4,0.3,0.8,0.8,0.8h6c0.4,0,0.8-0.3,0.8-0.8v-6C7.5,9.4,7.2,9,6.8,9
	C6.8,9,6.8,9,6.8,9z M6,15H1.5v-4.5H6V15z"/>
<path class="st0" d="M0.8,18h6c0.4,0,0.8,0.3,0.8,0.8v6c0,0.4-0.3,0.8-0.8,0.8h-6c-0.4,0-0.8-0.3-0.8-0.8v-6C0,18.3,0.3,18,0.8,18z"
	/>
<path class="st0" d="M14.8,18c-0.4,0-0.8,0.3-0.8,0.8c0,1.2-1,2.2-2.2,2.2c0,0,0,0,0,0h-0.2l0.7-0.7c0.3-0.3,0.3-0.8,0-1.1
	c-0.3-0.3-0.7-0.3-1,0l-2,2c-0.1,0.1-0.1,0.1-0.1,0.2c0,0,0,0,0,0.1c0,0.1,0,0.1,0,0.2c0,0,0,0,0,0.1c0,0.1,0,0.2,0,0.2l0,0l0,0
	c0,0.1,0.1,0.2,0.1,0.2l0,0l2,2c0.3,0.3,0.8,0.3,1.1,0c0.3-0.3,0.3-0.8,0-1.1l-0.7-0.7h0.2c2.1,0,3.7-1.6,3.8-3.7l0,0
	C15.5,18.4,15.2,18,14.8,18C14.8,18,14.8,18,14.8,18z"/>
<path class="st0" d="M9.8,4.5h2c1.2,0,2.2,1,2.3,2.2c0,0,0,0,0,0.1c0,0.4,0.3,0.7,0.7,0.7c0,0,0,0,0,0c0.4,0,0.8-0.3,0.8-0.8
	c0-2.1-1.6-3.7-3.7-3.8c0,0,0,0,0,0h-2C9.3,3,9,3.3,9,3.7S9.3,4.5,9.8,4.5z"/>
<path class="st0" d="M17.8,12h-0.4c-0.1-0.2-0.1-0.4-0.2-0.6l0.3-0.3c0.3-0.3,0.3-0.8,0-1.1c-0.3-0.3-0.7-0.3-1,0l-0.3,0.3
	c-0.2-0.1-0.4-0.2-0.6-0.2V9.8c0-0.4-0.3-0.8-0.8-0.8S14,9.4,14,9.8v0.4c-0.2,0.1-0.4,0.1-0.6,0.2l-0.3-0.3c-0.3-0.3-0.8-0.3-1.1,0
	c-0.3,0.3-0.3,0.8,0,1c0,0,0,0,0,0l0.3,0.3c-0.1,0.2-0.2,0.4-0.2,0.6h-0.4c-0.4,0-0.8,0.3-0.8,0.8s0.3,0.8,0.8,0.8h0.4
	c0.1,0.2,0.1,0.4,0.2,0.6l-0.3,0.3c-0.3,0.3-0.3,0.8,0,1c0,0,0,0,0,0c0.1,0.1,0.3,0.2,0.5,0.2c0.2,0,0.4-0.1,0.5-0.2l0.3-0.3
	c0.2,0.1,0.4,0.2,0.6,0.2v0.4c0,0.4,0.3,0.8,0.8,0.8s0.8-0.3,0.8-0.8v-0.4c0.2-0.1,0.4-0.1,0.6-0.2l0.3,0.3c0.3,0.3,0.8,0.3,1.1,0
	c0.3-0.3,0.3-0.8,0-1.1l-0.3-0.3c0.1-0.2,0.2-0.4,0.2-0.6h0.4c0.4,0,0.8-0.3,0.8-0.8S18.2,12,17.8,12L17.8,12z M14.8,14
	c-0.7,0-1.2-0.6-1.2-1.3s0.6-1.2,1.3-1.2c0.7,0,1.2,0.6,1.2,1.3c0,0,0,0,0,0C16,13.5,15.4,14,14.8,14z"/>
</svg>
