<?xml version="1.0" encoding="utf-8"?>
<!-- Generator: Adobe Illustrator 24.0.2, SVG Export Plug-In . SVG Version: 6.00 Build 0)  -->
<svg version="1.1" id="Icon" xmlns="http://www.w3.org/2000/svg" xmlns:xlink="http://www.w3.org/1999/xlink" x="0px" y="0px"
	 viewBox="0 0 23.5 25.5" style="enable-background:new 0 0 23.5 25.5;" xml:space="preserve">
<style type="text/css">
	.st0{fill:#EE0000;}
</style>
<title>Icon-Red_Hat-Shapes-Yes-A-Red</title>
<path class="st0" d="M16.2,9.2l-6.5,6.5l-2.5-2.5c-0.3-0.3-0.8-0.3-1.1,0c-0.3,0.3-0.3,0.7,0,1l3,3c0.3,0.3,0.8,0.3,1.1,0l7-7
	c0.3-0.3,0.3-0.8,0-1.1C17,9,16.5,9,16.2,9.2z M11.8,1C5.3,1,0,6.3,0,12.8s5.3,11.8,11.8,11.8s11.8-5.3,11.8-11.8
	C23.5,6.3,18.2,1,11.8,1z M11.8,23C6.1,23,1.5,18.4,1.5,12.8S6.1,2.5,11.8,2.5S22,7.1,22,12.8C22,18.4,17.4,23,11.8,23z"/>
</svg>
