<?xml version="1.0" encoding="utf-8"?>
<!-- Generator: Adobe Illustrator 24.0.2, SVG Export Plug-In . SVG Version: 6.00 Build 0)  -->
<svg version="1.1" id="a7c6710e-7c47-434d-9362-11fefb92348b"
	 xmlns="http://www.w3.org/2000/svg" xmlns:xlink="http://www.w3.org/1999/xlink" x="0px" y="0px" viewBox="0 0 21.1 25.5"
	 style="enable-background:new 0 0 21.1 25.5;" xml:space="preserve">
<style type="text/css">
	.st0{fill:#EE0000;}
</style>
<title>Icon-Red_Hat-Progression-A-Red-RGB</title>
<g>
	<path class="st0" d="M1.2,6.5h5.1C6.7,6.5,7,6.2,7,5.8V0.7C7,0.3,6.7,0,6.3,0H1.2C0.9,0,0.5,0.3,0.5,0.7v5.1
		C0.5,6.2,0.9,6.5,1.2,6.5z M1.9,3.2V1.4h3.7v3.7H1.9V3.2z"/>
	<path class="st0" d="M19.4,20.7c-0.4,0-0.7,0.3-0.7,0.7v2.7H9.8v-8.9H16c0.4,0,0.7-0.3,0.7-0.7c0-0.4-0.3-0.7-0.7-0.7H9.1
		c-0.4,0-0.7,0.3-0.7,0.7v10.3c0,0.4,0.3,0.7,0.7,0.7c0,0,0,0,0,0h10.3c0.4,0,0.7-0.3,0.7-0.7c0,0,0,0,0,0v-3.4
		C20.1,21,19.8,20.7,19.4,20.7z"/>
	<path class="st0" d="M19.4,15.5c-0.2,0-0.4,0.1-0.5,0.2l-2.6,2.6l-2.1,2.1L13.9,20l-0.9-0.9c-0.3-0.3-0.7-0.3-1,0
		c-0.3,0.3-0.3,0.7,0,1c0,0,0,0,0,0l0.9,0.9l0.9,0.9c0.3,0.3,0.7,0.3,1,0c0,0,0,0,0,0l2.6-2.6l2.6-2.6c0.3-0.3,0.3-0.7,0-1
		C19.8,15.6,19.6,15.5,19.4,15.5z"/>
	<path class="st0" d="M9.1,3.9h8.4c1.2,0,2.1,0.9,2.1,2.1s-0.9,2.1-2.1,2.1h-3.1l0.7-0.7c0.3-0.3,0.3-0.7,0-1c-0.3-0.3-0.7-0.3-1,0
		c0,0,0,0,0,0l-0.9,0.9l-0.9,0.9c-0.3,0.3-0.3,0.7,0,1c0,0,0,0,0,0l0.9,0.9l0.9,0.9c0.2,0.2,0.5,0.3,0.8,0.2
		c0.4-0.1,0.5-0.6,0.4-0.9c0-0.1-0.1-0.2-0.2-0.2l-0.7-0.7h3.1c1.9,0,3.5-1.6,3.5-3.5s-1.6-3.5-3.5-3.5H9.1c-0.4,0-0.7,0.3-0.7,0.7
		C8.4,3.6,8.7,3.9,9.1,3.9z"/>
	<path class="st0" d="M6.8,14l-0.9-0.9l-0.9-0.9c-0.3-0.3-0.7-0.3-1,0c-0.3,0.3-0.3,0.7,0,1c0,0,0,0,0,0l0.7,0.7H3.5
		c-1.2,0-2.1-0.9-2.1-2.1s0.9-2.1,2.1-2.1h6.6c0.4,0,0.7-0.3,0.7-0.7c0-0.4-0.3-0.7-0.7-0.7H3.5C1.6,8.2,0,9.7,0,11.7
		s1.6,3.5,3.5,3.5h1.1L4,15.9c-0.3,0.3-0.3,0.7,0,1c0,0,0,0,0,0c0.3,0.3,0.7,0.3,1,0c0,0,0,0,0,0l0.9-0.9L6.8,15
		c0.1-0.1,0.1-0.1,0.2-0.2C7,14.6,7,14.4,7,14.2C6.9,14.1,6.9,14.1,6.8,14z"/>
</g>
</svg>
