<?xml version="1.0" encoding="utf-8"?>
<!-- Generator: Adobe Illustrator 24.0.2, SVG Export Plug-In . SVG Version: 6.00 Build 0)  -->
<svg version="1.1" id="Layer_1" xmlns="http://www.w3.org/2000/svg" xmlns:xlink="http://www.w3.org/1999/xlink" x="0px" y="0px"
	 viewBox="0 0 1366 350" style="enable-background:new 0 0 1366 350;" xml:space="preserve">
<style type="text/css">
	.st0{fill:#CCCCCC;}
	.st1{fill:#EE0000;}
	.st2{fill:#F5606D;}
	.st3{fill:#404040;}
</style>
<path class="st0" d="M568.99,122.88c0,11.65-1.8,22.23-5.41,31.74c-3.61,9.52-8.74,17.64-15.38,24.37
	c-6.65,6.73-14.69,11.93-24.12,15.63c-9.44,3.69-19.98,5.54-31.63,5.54c-11.65,0-22.19-1.81-31.63-5.41
	c-9.44-3.61-17.43-8.78-24-15.51c-6.57-6.72-11.65-14.85-15.26-24.36c-3.61-9.52-5.41-20.18-5.41-31.99V25.42h42.33v97.46
	c0,11.81,3.12,21.33,9.35,28.55c6.23,7.22,14.52,10.83,24.86,10.83c10.34,0,18.58-3.61,24.73-10.83s9.23-16.74,9.23-28.55V25.42
	h42.33V122.88z M600.25,197.7V70.71h39.87v20.67c4.92-7.38,10.78-13,17.59-16.86c6.81-3.85,14.31-5.79,22.52-5.79
	c12.31,0,22.39,4.06,30.27,12.18s11.81,18.5,11.81,31.13v85.65h-39.87v-74.08c0-7.05-1.93-12.75-5.78-17.1
	c-3.86-4.34-8.98-6.52-15.38-6.52c-4.27,0-8.16,0.86-11.69,2.58c-3.53,1.72-6.69,4.39-9.47,8v87.12H600.25z M772.27,51.02
	c-6.24,0-11.53-2.17-15.87-6.52c-4.35-4.34-6.52-9.56-6.52-15.63c0-6.07,2.21-11.32,6.64-15.75c4.43-4.43,9.68-6.65,15.75-6.65
	c6.07,0,11.36,2.22,15.87,6.65c4.51,4.43,6.77,9.68,6.77,15.75c0,6.07-2.18,11.29-6.52,15.63
	C784.04,48.84,778.67,51.02,772.27,51.02z M792.21,70.71V197.7h-39.87V70.71H792.21z M815.59,70.71h26.33V53.97
	c0-15.09,4.38-26.66,13.17-34.71c8.77-8.03,21.29-12.06,37.53-12.06c3.45,0,7.17,0.24,11.2,0.74c4.02,0.49,7.34,1.07,9.97,1.72
	v32.73c-3.61-0.66-6.52-1.07-8.74-1.23c-2.22-0.16-4.39-0.24-6.52-0.24c-5.58,0-9.77,1.15-12.56,3.45
	c-2.79,2.3-4.18,5.74-4.18,10.34v16h31.99v30.76h-31.99v96.23h-39.87v-96.23h-26.33V70.71z M956.36,51.02
	c-6.24,0-11.53-2.17-15.87-6.52c-4.35-4.34-6.52-9.56-6.52-15.63c0-6.07,2.21-11.32,6.64-15.75c4.43-4.43,9.68-6.65,15.75-6.65
	c6.07,0,11.36,2.22,15.87,6.65c4.51,4.43,6.77,9.68,6.77,15.75c0,6.07-2.18,11.29-6.52,15.63
	C968.13,48.84,962.76,51.02,956.36,51.02z M976.3,70.71V197.7h-39.87V70.71H976.3z M1121.99,179.73
	c-8.21,7.22-16.49,12.43-24.86,15.62c-8.37,3.2-17.89,4.8-28.55,4.8c-9.35,0-18.09-1.69-26.21-5.05c-8.12-3.36-15.22-8-21.29-13.91
	c-6.07-5.9-10.83-12.88-14.27-20.92c-3.45-8.04-5.17-16.65-5.17-25.84c0-9.35,1.64-18.05,4.92-26.09
	c3.28-8.03,7.75-15.01,13.41-20.92c5.66-5.9,12.43-10.54,20.3-13.9c7.88-3.36,16.32-5.05,25.35-5.05c9.19,0,17.6,1.69,25.23,5.05
	c7.63,3.36,14.19,8,19.69,13.9c5.5,5.91,9.8,13.01,12.92,21.29c3.11,8.28,4.67,17.35,4.67,27.19v8.62h-87.37
	c1.8,7.06,5.41,12.8,10.83,17.23c5.41,4.43,11.73,6.65,18.95,6.65c5.25,0,10.05-0.9,14.4-2.71c4.35-1.8,7.92-4.43,10.71-7.88
	L1121.99,179.73z M1065.38,99.5c-6.23,0-11.49,1.97-15.75,5.91c-4.27,3.94-7.22,9.44-8.86,16.49h50.45
	c-1.64-6.89-4.76-12.34-9.35-16.36C1077.28,101.51,1071.78,99.5,1065.38,99.5z M1242.09,197.7v-16.49
	c-4.1,5.26-9.48,9.44-16.12,12.56c-6.65,3.12-13.75,4.67-21.29,4.67c-7.71,0-15.01-1.68-21.9-5.05
	c-6.89-3.36-12.84-7.96-17.84-13.78c-5.01-5.82-8.99-12.68-11.94-20.55s-4.43-16.24-4.43-25.1s1.51-17.18,4.55-24.98
	c3.03-7.79,7.22-14.56,12.55-20.3c5.33-5.74,11.61-10.29,18.83-13.66c7.22-3.36,14.93-5.04,23.13-5.04c6.56,0,12.8,1.31,18.7,3.94
	c5.91,2.63,10.99,6.4,15.26,11.32v-63.5l39.87-6.15V197.7H1242.09z M1187.7,134.2c0,8.86,2.91,16.29,8.74,22.27
	c5.82,5.99,13,8.99,21.54,8.99c4.76,0,9.1-0.86,13.04-2.58c3.94-1.72,7.46-4.23,10.58-7.51v-42.82c-3.12-3.12-6.69-5.54-10.71-7.26
	c-4.02-1.72-8.33-2.58-12.92-2.58c-8.7,0-15.92,2.99-21.66,8.98C1190.57,117.67,1187.7,125.18,1187.7,134.2z"/>
<g>
	<g>
		<path class="st1" d="M275.53,238.94v-1c-0.75,0.02-1.48,0.11-2.24,0.11c-39.51,0-71.66-32.15-71.66-71.66s32.15-71.66,71.66-71.66
			c0.76,0,1.49,0.09,2.24,0.11v-1c22.54-1.17,40.48-19.77,40.48-42.6c0-23.59-19.12-42.72-42.72-42.72
			c-23.59,0-42.72,19.12-42.72,42.72c0,0.61,0.07,1.2,0.09,1.81h-0.96c-0.97,38.67-32.66,69.85-71.57,69.85
			c-38.9,0-70.59-31.18-71.57-69.85h-0.96c0.03-0.6,0.09-1.2,0.09-1.81C85.71,27.65,66.59,8.53,43,8.53
			c-23.59,0-42.72,19.12-42.72,42.72S19.41,93.96,43,93.96c0.61,0,1.2-0.07,1.81-0.09v0.96c38.67,0.97,69.85,32.66,69.85,71.57
			s-31.18,70.59-69.85,71.57v0.96c-0.6-0.03-1.2-0.09-1.81-0.09c-23.59,0-42.72,19.12-42.72,42.72c0,23.59,19.12,42.72,42.72,42.72
			c22.84,0,41.43-17.93,42.6-40.48h1c-0.02-0.75-0.11-1.48-0.11-2.24c0-39.51,32.15-71.66,71.66-71.66
			c39.51,0,71.66,32.15,71.66,71.66c0,0.76-0.09,1.49-0.11,2.24h1c1.17,22.54,19.77,40.48,42.6,40.48
			c23.59,0,42.72-19.12,42.72-42.72C316.01,258.7,298.08,240.11,275.53,238.94z"/>
	</g>
	
		<ellipse transform="matrix(0.7071 -0.7071 0.7071 0.7071 -105.0618 79.139)" class="st2" cx="43" cy="166.39" rx="42.72" ry="42.72"/>
	<circle class="st2" cx="158.15" cy="281.54" r="42.72"/>
	
		<ellipse transform="matrix(0.9732 -0.2298 0.2298 0.9732 -30.9177 67.2411)" class="st2" cx="273.29" cy="166.39" rx="42.72" ry="42.72"/>
	<circle class="st2" cx="158.15" cy="51.24" r="42.72"/>
</g>
<path class="st3" d="M562.02,115.92c0,11.65-1.8,22.23-5.41,31.74c-3.61,9.52-8.74,17.64-15.38,24.37
	c-6.65,6.73-14.69,11.93-24.12,15.63c-9.44,3.69-19.98,5.54-31.63,5.54c-11.65,0-22.19-1.81-31.63-5.41
	c-9.44-3.61-17.43-8.78-24-15.51c-6.57-6.72-11.65-14.85-15.26-24.36c-3.61-9.52-5.41-20.18-5.41-31.99V18.46h42.33v97.46
	c0,11.81,3.12,21.33,9.35,28.55c6.23,7.22,14.52,10.83,24.86,10.83c10.34,0,18.58-3.61,24.73-10.83c6.15-7.22,9.23-16.74,9.23-28.55
	V18.46h42.33V115.92z M593.28,190.73V63.74h39.87v20.67c4.92-7.38,10.78-13,17.59-16.86c6.81-3.85,14.31-5.79,22.52-5.79
	c12.31,0,22.39,4.06,30.27,12.18s11.81,18.5,11.81,31.13v85.65h-39.87v-74.08c0-7.05-1.93-12.75-5.78-17.1
	c-3.86-4.34-8.98-6.52-15.38-6.52c-4.27,0-8.16,0.86-11.69,2.58c-3.53,1.72-6.69,4.39-9.47,8v87.12H593.28z M765.31,44.05
	c-6.24,0-11.53-2.17-15.87-6.52c-4.35-4.34-6.52-9.56-6.52-15.63c0-6.07,2.21-11.32,6.64-15.75s9.68-6.65,15.75-6.65
	c6.07,0,11.36,2.22,15.87,6.65c4.51,4.43,6.77,9.68,6.77,15.75c0,6.07-2.18,11.29-6.52,15.63
	C777.08,41.88,771.71,44.05,765.31,44.05z M785.25,63.74v126.99h-39.87V63.74H785.25z M808.62,63.74h26.33V47.01
	c0-15.09,4.38-26.66,13.17-34.71c8.77-8.03,21.29-12.06,37.53-12.06c3.45,0,7.17,0.24,11.2,0.74c4.02,0.49,7.34,1.07,9.97,1.72
	v32.73c-3.61-0.66-6.52-1.07-8.74-1.23c-2.22-0.16-4.39-0.24-6.52-0.24c-5.58,0-9.77,1.15-12.56,3.45
	c-2.79,2.3-4.18,5.74-4.18,10.34v16h31.99V94.5h-31.99v96.23h-39.87V94.5h-26.33V63.74z M949.39,44.05
	c-6.24,0-11.53-2.17-15.87-6.52c-4.35-4.34-6.52-9.56-6.52-15.63c0-6.07,2.21-11.32,6.64-15.75s9.68-6.65,15.75-6.65
	c6.07,0,11.36,2.22,15.87,6.65c4.51,4.43,6.77,9.68,6.77,15.75c0,6.07-2.18,11.29-6.52,15.63
	C961.16,41.88,955.79,44.05,949.39,44.05z M969.33,63.74v126.99h-39.87V63.74H969.33z M1115.03,172.77
	c-8.21,7.22-16.49,12.43-24.86,15.62c-8.37,3.2-17.89,4.8-28.55,4.8c-9.35,0-18.09-1.69-26.21-5.05c-8.12-3.36-15.22-8-21.29-13.91
	c-6.07-5.9-10.83-12.88-14.27-20.92c-3.45-8.04-5.17-16.65-5.17-25.84c0-9.35,1.64-18.05,4.92-26.09
	c3.28-8.03,7.75-15.01,13.41-20.92c5.66-5.9,12.43-10.54,20.3-13.9c7.88-3.36,16.32-5.05,25.35-5.05c9.19,0,17.6,1.69,25.23,5.05
	c7.63,3.36,14.19,8,19.69,13.9c5.5,5.91,9.8,13.01,12.92,21.29c3.11,8.28,4.67,17.35,4.67,27.19v8.62h-87.37
	c1.8,7.06,5.41,12.8,10.83,17.23c5.41,4.43,11.73,6.65,18.95,6.65c5.25,0,10.05-0.9,14.4-2.71c4.35-1.8,7.92-4.43,10.71-7.88
	L1115.03,172.77z M1058.42,92.54c-6.23,0-11.49,1.97-15.75,5.91c-4.27,3.94-7.22,9.44-8.86,16.49h50.45
	c-1.64-6.89-4.76-12.34-9.35-16.36C1070.31,94.55,1064.82,92.54,1058.42,92.54z M1235.12,190.73v-16.49
	c-4.1,5.26-9.48,9.44-16.12,12.56c-6.65,3.12-13.75,4.67-21.29,4.67c-7.71,0-15.01-1.68-21.9-5.05
	c-6.89-3.36-12.84-7.96-17.84-13.78c-5.01-5.82-8.99-12.68-11.94-20.55s-4.43-16.24-4.43-25.1s1.51-17.18,4.55-24.98
	c3.03-7.79,7.22-14.56,12.55-20.3c5.33-5.74,11.61-10.29,18.83-13.66c7.22-3.36,14.93-5.04,23.13-5.04c6.56,0,12.8,1.31,18.7,3.94
	c5.91,2.63,10.99,6.4,15.26,11.32v-63.5l39.87-6.15v182.12H1235.12z M1180.73,127.24c0,8.86,2.91,16.29,8.74,22.27
	c5.82,5.99,13,8.99,21.54,8.99c4.76,0,9.1-0.86,13.04-2.58c3.94-1.72,7.46-4.23,10.58-7.51v-42.82c-3.12-3.12-6.69-5.54-10.71-7.26
	c-4.02-1.72-8.33-2.58-12.92-2.58c-8.7,0-15.92,2.99-21.66,8.98C1183.6,110.71,1180.73,118.22,1180.73,127.24z"/>
<g>
	<path class="st1" d="M457.34,319.48l-32.37-66.27v72.18h-8.51v-82.69h12.76l28.23,58.71l28.11-58.71h12.76v82.69h-8.62v-72.3
		L457.34,319.48z"/>
	<path class="st1" d="M532.35,326.44c-6.46,0-11.72-1.65-15.77-4.96c-4.06-3.31-6.08-7.6-6.08-12.88c0-5.51,2.13-9.9,6.38-13.17
		c4.25-3.26,10-4.9,17.25-4.9c3.15,0,6.2,0.35,9.15,1.07c2.95,0.71,5.69,1.69,8.21,2.95v-7.79c0-4.73-1.34-8.29-4.01-10.69
		c-2.68-2.4-6.58-3.6-11.7-3.6c-2.91,0-5.84,0.41-8.8,1.24c-2.95,0.83-6.2,2.14-9.74,3.95l-3.31-6.73
		c4.25-2.04,8.19-3.54,11.82-4.49c3.62-0.94,7.25-1.41,10.87-1.41c7.48,0,13.25,1.77,17.31,5.31c4.05,3.55,6.08,8.62,6.08,15.24
		v39.81h-8.51v-5.79c-2.68,2.29-5.61,4-8.8,5.14C539.5,325.87,536.05,326.44,532.35,326.44z M518.89,308.37
		c0,3.31,1.4,6.01,4.19,8.09c2.79,2.09,6.4,3.13,10.81,3.13c3.55,0,6.77-0.55,9.69-1.65c2.91-1.1,5.55-2.84,7.91-5.2v-11.1
		c-2.44-1.65-5.06-2.85-7.85-3.6c-2.8-0.75-5.89-1.12-9.27-1.12c-4.72,0-8.49,1.05-11.28,3.13
		C520.28,302.13,518.89,304.91,518.89,308.37z"/>
	<path class="st1" d="M574.64,325.38V266.2h8.74v6.97c2.29-2.68,5-4.7,8.15-6.08c3.15-1.38,6.66-2.07,10.51-2.07
		c6.69,0,12.17,2.13,16.42,6.38c4.25,4.25,6.38,9.76,6.38,16.54v37.45h-8.62v-35.68c0-5.2-1.5-9.33-4.49-12.41
		c-2.99-3.07-7.01-4.61-12.05-4.61c-3.55,0-6.72,0.79-9.51,2.36c-2.79,1.58-5.06,3.82-6.79,6.73v43.59H574.64z"/>
	<path class="st1" d="M658.16,326.44c-6.46,0-11.72-1.65-15.77-4.96c-4.06-3.31-6.08-7.6-6.08-12.88c0-5.51,2.13-9.9,6.38-13.17
		c4.25-3.26,10-4.9,17.25-4.9c3.15,0,6.2,0.35,9.15,1.07c2.95,0.71,5.69,1.69,8.21,2.95v-7.79c0-4.73-1.34-8.29-4.01-10.69
		c-2.68-2.4-6.58-3.6-11.7-3.6c-2.91,0-5.84,0.41-8.8,1.24c-2.95,0.83-6.2,2.14-9.74,3.95l-3.31-6.73
		c4.25-2.04,8.19-3.54,11.82-4.49c3.62-0.94,7.25-1.41,10.87-1.41c7.48,0,13.25,1.77,17.31,5.31c4.05,3.55,6.08,8.62,6.08,15.24
		v39.81h-8.51v-5.79c-2.68,2.29-5.61,4-8.8,5.14C665.31,325.87,661.86,326.44,658.16,326.44z M644.7,308.37
		c0,3.31,1.4,6.01,4.19,8.09c2.79,2.09,6.4,3.13,10.81,3.13c3.55,0,6.77-0.55,9.69-1.65c2.91-1.1,5.55-2.84,7.91-5.2v-11.1
		c-2.44-1.65-5.06-2.85-7.85-3.6c-2.8-0.75-5.89-1.12-9.27-1.12c-4.72,0-8.49,1.05-11.28,3.13
		C646.09,302.13,644.7,304.91,644.7,308.37z"/>
	<path class="st1" d="M727.27,325.86c-4.09,0-7.93-0.78-11.52-2.36c-3.58-1.57-6.72-3.72-9.39-6.44c-2.68-2.72-4.78-5.93-6.32-9.63
		c-1.54-3.7-2.3-7.68-2.3-11.93c0-4.25,0.77-8.23,2.3-11.93c1.54-3.7,3.64-6.91,6.32-9.63c2.68-2.72,5.83-4.87,9.45-6.44
		c3.62-1.57,7.52-2.36,11.7-2.36c3.38,0,6.67,0.61,9.86,1.83c3.19,1.22,6.12,2.93,8.8,5.14v-5.91h8.62v60.6
		c0,7.56-2.21,13.37-6.62,17.43c-4.41,4.05-10.71,6.08-18.9,6.08c-4.09,0-8.15-0.53-12.17-1.59c-4.02-1.07-7.68-2.58-10.99-4.55
		l3.78-6.85c3.54,1.89,6.83,3.27,9.86,4.14c3.03,0.87,6.08,1.3,9.15,1.3c5.59,0,9.84-1.34,12.76-4.02
		c2.91-2.68,4.37-6.62,4.37-11.81V319c-2.68,2.21-5.61,3.9-8.8,5.08C734.06,325.27,730.73,325.86,727.27,325.86z M706.36,295.49
		c0,3.15,0.55,6.13,1.65,8.92c1.1,2.79,2.62,5.2,4.55,7.2c1.93,2.01,4.23,3.6,6.91,4.78c2.68,1.18,5.51,1.77,8.51,1.77
		c3.78,0,7.25-0.71,10.4-2.13c3.15-1.42,5.71-3.43,7.68-6.03v-29.06c-1.97-2.52-4.55-4.49-7.74-5.91
		c-3.19-1.41-6.63-2.13-10.33-2.13c-3.07,0-5.93,0.57-8.57,1.71c-2.64,1.14-4.92,2.74-6.85,4.78c-1.93,2.05-3.45,4.45-4.55,7.2
		C706.91,289.4,706.36,292.35,706.36,295.49z"/>
	<path class="st1" d="M819.53,319.12c-3.31,2.44-6.76,4.28-10.34,5.5c-3.58,1.22-7.5,1.83-11.75,1.83s-8.25-0.78-11.99-2.36
		c-3.74-1.57-6.97-3.74-9.69-6.5c-2.72-2.75-4.87-6-6.44-9.74s-2.36-7.78-2.36-12.11c0-4.25,0.77-8.23,2.3-11.93
		c1.54-3.7,3.6-6.93,6.2-9.69c2.6-2.76,5.69-4.92,9.27-6.5c3.58-1.57,7.39-2.36,11.4-2.36c3.94,0,7.62,0.79,11.05,2.36
		c3.43,1.58,6.38,3.74,8.86,6.5c2.48,2.76,4.45,5.99,5.91,9.69c1.46,3.7,2.19,7.68,2.19,11.93v2.72h-48.55
		c0.63,5.83,3.03,10.67,7.2,14.53c4.18,3.86,9.18,5.79,15,5.79c3.07,0,6.06-0.47,8.98-1.42c2.92-0.94,5.35-2.28,7.32-4.01
		L819.53,319.12z M795.91,272.93c-5.12,0-9.55,1.74-13.29,5.2c-3.74,3.46-6,7.91-6.79,13.35h39.57c-0.79-5.2-3.01-9.59-6.67-13.17
		C805.06,274.73,800.79,272.93,795.91,272.93z"/>
	<path class="st1" d="M882.61,325.38v-6.26c-2.52,2.36-5.41,4.16-8.68,5.38c-3.27,1.22-6.75,1.83-10.45,1.83
		c-4.18,0-8.08-0.78-11.7-2.36c-3.62-1.57-6.77-3.72-9.45-6.44c-2.68-2.72-4.78-5.96-6.32-9.74s-2.3-7.79-2.3-12.05
		c0-4.25,0.77-8.25,2.3-11.99s3.64-6.97,6.32-9.69c2.68-2.72,5.85-4.86,9.51-6.44c3.66-1.57,7.58-2.36,11.76-2.36
		c3.38,0,6.71,0.57,9.98,1.71c3.27,1.14,6.24,2.82,8.92,5.02v-29.3l8.74-2.01v84.7H882.61z M842.33,295.62
		c0,3.23,0.57,6.26,1.71,9.1c1.14,2.83,2.7,5.28,4.67,7.32c1.97,2.05,4.29,3.66,6.97,4.84c2.68,1.18,5.55,1.77,8.62,1.77
		c3.7,0,7.15-0.73,10.34-2.19c3.19-1.46,5.8-3.49,7.85-6.08v-29.3c-2.05-2.52-4.68-4.51-7.91-5.97c-3.23-1.46-6.66-2.19-10.28-2.19
		c-6.14,0-11.34,2.17-15.59,6.5C844.45,283.76,842.33,289.16,842.33,295.62z"/>
	<path class="st1" d="M925.38,311.21l6.02-6.26c4.25,4.49,8.8,7.89,13.64,10.22c4.85,2.33,9.94,3.49,15.3,3.49
		c6.46,0,11.78-1.54,15.95-4.61c4.17-3.07,6.26-6.97,6.26-11.69c0-4.25-1.47-7.52-4.43-9.81c-2.95-2.28-7.82-3.98-14.59-5.08
		l-11.93-1.89c-7.95-1.26-13.82-3.6-17.6-7.03c-3.78-3.43-5.67-8.05-5.67-13.88c0-6.86,2.68-12.41,8.03-16.66
		c5.35-4.25,12.36-6.38,21.03-6.38c5.75,0,11.46,0.95,17.13,2.83c5.67,1.89,10.83,4.61,15.48,8.15l-5.2,7.09
		c-4.49-3.38-9.05-5.94-13.7-7.68c-4.65-1.73-9.33-2.6-14.06-2.6c-5.91,0-10.69,1.36-14.36,4.07c-3.66,2.72-5.49,6.2-5.49,10.46
		c0,3.86,1.3,6.81,3.9,8.86c2.6,2.05,6.89,3.55,12.88,4.49l11.81,1.89c8.98,1.5,15.53,4.06,19.67,7.68c4.14,3.62,6.2,8.62,6.2,15
		c0,3.62-0.77,6.95-2.3,9.98c-1.54,3.03-3.7,5.63-6.5,7.79c-2.8,2.17-6.14,3.86-10.04,5.08c-3.9,1.22-8.17,1.83-12.82,1.83
		c-6.54,0-12.82-1.32-18.84-3.96C935.12,319.97,929.86,316.17,925.38,311.21z"/>
	<path class="st1" d="M1053.43,319.12c-3.31,2.44-6.76,4.28-10.34,5.5c-3.58,1.22-7.5,1.83-11.75,1.83c-4.25,0-8.25-0.78-11.99-2.36
		c-3.74-1.57-6.97-3.74-9.69-6.5c-2.72-2.75-4.87-6-6.44-9.74c-1.57-3.74-2.36-7.78-2.36-12.11c0-4.25,0.77-8.23,2.3-11.93
		c1.54-3.7,3.6-6.93,6.2-9.69c2.6-2.76,5.69-4.92,9.27-6.5c3.58-1.57,7.39-2.36,11.4-2.36c3.94,0,7.62,0.79,11.05,2.36
		c3.43,1.58,6.38,3.74,8.86,6.5c2.48,2.76,4.45,5.99,5.91,9.69c1.46,3.7,2.19,7.68,2.19,11.93v2.72h-48.55
		c0.63,5.83,3.03,10.67,7.2,14.53c4.18,3.86,9.18,5.79,15,5.79c3.07,0,6.06-0.47,8.98-1.42c2.92-0.94,5.35-2.28,7.32-4.01
		L1053.43,319.12z M1029.8,272.93c-5.12,0-9.55,1.74-13.29,5.2c-3.74,3.46-6,7.91-6.79,13.35h39.57c-0.79-5.2-3.01-9.59-6.67-13.17
		C1038.95,274.73,1034.68,272.93,1029.8,272.93z"/>
	<path class="st1" d="M1070.2,325.38V266.2h8.74v8.39c1.73-3.07,4.02-5.45,6.85-7.15c2.84-1.69,6.07-2.54,9.69-2.54
		c1.1,0,2.09,0.06,2.95,0.18c0.87,0.12,1.73,0.34,2.6,0.65v8.03c-1.02-0.32-2.05-0.57-3.07-0.77c-1.02-0.19-2.05-0.29-3.07-0.29
		c-3.63,0-6.81,1.05-9.57,3.13s-4.88,5.1-6.38,9.04v40.52H1070.2z"/>
	<path class="st1" d="M1132.22,325.38l-25.64-59.19h9.69l20.2,47.85l20.2-47.85h9.33l-25.51,59.19H1132.22z"/>
	<path class="st1" d="M1178.41,254.86c-1.57,0-2.95-0.59-4.14-1.77c-1.18-1.18-1.77-2.56-1.77-4.14c0-1.65,0.59-3.05,1.77-4.19
		c1.18-1.14,2.56-1.71,4.14-1.71c1.66,0,3.05,0.57,4.19,1.71c1.14,1.14,1.71,2.54,1.71,4.19c0,1.58-0.57,2.96-1.71,4.14
		C1181.46,254.27,1180.06,254.86,1178.41,254.86z M1182.78,266.2v59.19h-8.74V266.2H1182.78z"/>
	<path class="st1" d="M1225.31,318.53c3.15,0,6.18-0.63,9.1-1.89c2.91-1.26,5.63-3.11,8.15-5.55l5.43,5.9
		c-3.15,2.99-6.69,5.32-10.63,6.97c-3.94,1.65-8.03,2.48-12.28,2.48c-4.18,0-8.11-0.78-11.82-2.36c-3.7-1.57-6.89-3.74-9.57-6.5
		c-2.68-2.75-4.81-6.02-6.38-9.8s-2.36-7.79-2.36-12.05c0-4.25,0.79-8.25,2.36-11.99s3.7-6.99,6.38-9.74
		c2.68-2.76,5.87-4.94,9.57-6.56c3.7-1.61,7.64-2.42,11.82-2.42c4.25,0,8.41,0.83,12.46,2.48c4.06,1.65,7.62,3.94,10.69,6.85
		l-5.55,6.38c-2.36-2.44-5.08-4.33-8.15-5.67c-3.07-1.34-6.18-2.01-9.33-2.01c-2.99,0-5.83,0.59-8.51,1.77
		c-2.68,1.18-4.98,2.8-6.91,4.84c-1.93,2.05-3.45,4.45-4.55,7.21c-1.11,2.76-1.65,5.71-1.65,8.86c0,3.23,0.57,6.24,1.71,9.04
		c1.14,2.79,2.68,5.2,4.61,7.2c1.93,2.01,4.23,3.6,6.91,4.78C1219.48,317.94,1222.31,318.53,1225.31,318.53z"/>
	<path class="st1" d="M1305.75,319.12c-3.31,2.44-6.76,4.28-10.34,5.5c-3.58,1.22-7.5,1.83-11.75,1.83c-4.25,0-8.25-0.78-11.99-2.36
		c-3.74-1.57-6.97-3.74-9.69-6.5c-2.72-2.75-4.87-6-6.44-9.74s-2.36-7.78-2.36-12.11c0-4.25,0.77-8.23,2.3-11.93
		c1.54-3.7,3.6-6.93,6.2-9.69c2.6-2.76,5.69-4.92,9.27-6.5c3.58-1.57,7.39-2.36,11.4-2.36c3.94,0,7.62,0.79,11.05,2.36
		c3.43,1.58,6.38,3.74,8.86,6.5c2.48,2.76,4.45,5.99,5.91,9.69c1.46,3.7,2.19,7.68,2.19,11.93v2.72h-48.55
		c0.63,5.83,3.03,10.67,7.2,14.53c4.18,3.86,9.18,5.79,15,5.79c3.07,0,6.06-0.47,8.98-1.42c2.92-0.94,5.35-2.28,7.32-4.01
		L1305.75,319.12z M1282.13,272.93c-5.12,0-9.55,1.74-13.29,5.2c-3.74,3.46-6,7.91-6.79,13.35h39.57c-0.79-5.2-3.01-9.59-6.67-13.17
		C1291.28,274.73,1287.01,272.93,1282.13,272.93z"/>
	<path class="st1" d="M1317.09,317.23l5.31-5.67c2.68,2.52,5.69,4.47,9.04,5.84c3.35,1.38,6.75,2.07,10.22,2.07
		c4.72,0,8.58-0.98,11.58-2.95c2.99-1.97,4.49-4.53,4.49-7.68c0-2.52-0.88-4.51-2.66-5.97c-1.77-1.46-4.55-2.46-8.33-3.02
		l-10.28-1.41c-5.9-0.87-10.3-2.62-13.17-5.26c-2.87-2.63-4.31-6.2-4.31-10.69c0-4.96,2.09-9.08,6.26-12.35
		c4.18-3.27,9.49-4.9,15.95-4.9c4.25,0,8.28,0.63,12.11,1.89c3.82,1.26,7.54,3.23,11.16,5.9l-4.61,5.91
		c-3.31-2.2-6.52-3.86-9.63-4.96c-3.11-1.1-6.28-1.65-9.51-1.65c-4.01,0-7.3,0.91-9.86,2.72c-2.56,1.81-3.84,4.18-3.84,7.09
		c0,2.53,0.87,4.47,2.6,5.85c1.73,1.38,4.53,2.34,8.39,2.89l10.28,1.42c5.9,0.79,10.33,2.54,13.29,5.26
		c2.95,2.72,4.43,6.32,4.43,10.81c0,2.52-0.61,4.91-1.83,7.15c-1.22,2.24-2.92,4.17-5.08,5.79c-2.17,1.61-4.71,2.87-7.62,3.78
		c-2.92,0.9-6.06,1.36-9.45,1.36c-4.88,0-9.47-0.81-13.76-2.42C1323.96,322.41,1320.24,320.15,1317.09,317.23z"/>
</g>
</svg>
